<svg id="Capa_1" enable-background="new 0 0 512 512" height="512" viewBox="0 0 512 512" width="512" xmlns="http://www.w3.org/2000/svg"><g><g fill="#ffd496"><path d="m502.538 232.984-41.582 5-42.812-5c-5.225 0-9.46-4.236-9.46-9.46v-19.004c0-5.225 4.236-9.46 9.46-9.46h84.393c5.225 0 9.46 4.236 9.46 9.46v19.004c.001 5.224-4.234 9.46-9.459 9.46z"/><path d="m502.538 308.838-43.998 5-40.396-5c-5.225 0-9.46-4.236-9.46-9.46v-19.004c0-5.225 4.236-9.46 9.46-9.46l36.362-5 48.031 5c5.225 0 9.46 4.236 9.46 9.46v19.004c.001 5.225-4.234 9.46-9.459 9.46z"/><path d="m502.538 384.695-43.515 5-40.879-5c-5.225 0-9.46-4.236-9.46-9.46v-19.005c0-5.225 4.236-9.46 9.46-9.46l40.396-5 43.998 5c5.225 0 9.46 4.236 9.46 9.46v19.004c0 5.225-4.235 9.461-9.46 9.461z"/><path d="m502.538 460.551-42.548 5-41.845-5c-5.225 0-9.46-4.236-9.46-9.46v-19.004c0-5.225 4.236-9.46 9.46-9.46l40.879-5 43.515 5c5.225 0 9.46 4.236 9.46 9.46v19.004c-.001 5.225-4.236 9.46-9.461 9.46z"/><path d="m366.31 422.623-42.588 5-41.805-5c-5.225 0-9.46-4.236-9.46-9.46v-19.004c0-5.225 4.236-9.46 9.46-9.46l40.839-5 43.555 5c5.225 0 9.46 4.236 9.46 9.46v19.004c-.001 5.224-4.236 9.46-9.461 9.46z"/><path d="m366.31 346.767-43.071 5-41.322-5c-5.225 0-9.46-4.236-9.46-9.46v-19.004c0-5.225 4.236-9.46 9.46-9.46l39.389-5 45.004 5c5.225 0 9.46 4.236 9.46 9.46v19.004c0 5.224-4.235 9.46-9.46 9.46z"/><path d="m230.082 308.836-41.179 5-43.215-5c-5.225 0-9.46-4.236-9.46-9.46v-19.004c0-5.225 4.236-9.46 9.46-9.46h84.393c5.225 0 9.46 4.236 9.46 9.46v19.004c.001 5.224-4.234 9.46-9.459 9.46z"/><path d="m230.082 384.695-41.662 5-42.731-5c-5.225 0-9.46-4.236-9.46-9.46v-19.005c0-5.225 4.236-9.46 9.46-9.46l41.282-5 43.112 5c5.225 0 9.46 4.236 9.46 9.46v19.004c-.001 5.225-4.236 9.461-9.461 9.461z"/><path d="m230.082 460.551-42.145 5-42.248-5c-5.225 0-9.46-4.236-9.46-9.46v-19.004c0-5.225 4.236-9.46 9.46-9.46l42.248-5 42.145 5c5.225 0 9.46 4.236 9.46 9.46v19.004c0 5.225-4.235 9.46-9.46 9.46z"/><path d="m93.854 422.623-43.635 5-40.759-5c-5.225 0-9.46-4.236-9.46-9.46v-19.004c0-5.225 4.236-9.46 9.46-9.46l41.725-5 42.668 5c5.225 0 9.46 4.236 9.46 9.46v19.004c.001 5.224-4.235 9.46-9.459 9.46z"/></g><g><g><g><path d="m119.801 218.354-32.817 31.061c-10.798-6.504-19.259-16.509-23.796-28.428l36.519-34.583z" fill="#17998c"/><g><g><path d="m18.511 307.274c-4.907 0-9.803-1.939-13.443-5.784-7.028-7.423-6.707-19.137.716-26.164l93.924-88.922c3.437-3.254 7.991-5.068 12.724-5.068h205.418l146.458-146.458c7.228-7.228 18.946-7.228 26.174 0s7.228 18.946 0 26.174l-151.879 151.879c-3.471 3.471-8.179 5.421-13.087 5.421h-205.713l-88.571 83.854c-3.578 3.388-8.154 5.068-12.721 5.068z" fill="#20b69f"/></g><path d="m490.487 61.047-34.414 34.414c-1.449-4.114-2.242-8.545-2.242-13.156v-10.618h-10.618c-4.696 0-9.201-.814-13.379-2.327l34.477-34.478c7.223-7.234 18.941-7.234 26.175 0 7.224 7.224 7.224 18.942.001 26.165z" fill="#17998c"/><g><g><path d="m492.817 100.798c-10.029-.357-17.833-8.904-17.833-18.939v-26.175c0-2.845-2.306-5.151-5.151-5.151h-26.175c-10.036 0-18.583-7.804-18.939-17.833-.374-10.529 8.05-19.183 18.496-19.183h50.277c10.222 0 18.508 8.286 18.508 18.508v50.277c0 10.446-8.653 18.871-19.183 18.496z" fill="#23f1a8"/></g></g></g><g><circle cx="116.131" cy="200.866" fill="#23f1a8" r="35.492"/><path d="m151.624 200.861c0 19.608-15.896 35.493-35.493 35.493-7.16 0-13.833-2.126-19.417-5.785 15.525-.994 27.825-13.918 27.825-29.708s-12.3-28.714-27.836-29.697c5.584-3.659 12.257-5.785 19.428-5.785 19.597 0 35.493 15.885 35.493 35.482z" fill="#26d192"/></g><g><circle cx="326.602" cy="195.715" fill="#23f1a8" r="35.492"/><path d="m362.096 195.71c0 19.608-15.896 35.493-35.493 35.493-7.16 0-13.833-2.126-19.417-5.785 15.525-.994 27.825-13.918 27.825-29.708s-12.3-28.714-27.836-29.697c5.584-3.659 12.257-5.785 19.428-5.785 19.597 0 35.493 15.885 35.493 35.482z" fill="#26d192"/></g></g></g><g><g><g><path d="m93.854 498.479h-84.394c-5.225 0-9.46-4.236-9.46-9.46v-19.004c0-5.225 4.236-9.46 9.46-9.46l40.275-5 44.118 5c5.225 0 9.46 4.236 9.46 9.46v19.004c.001 5.225-4.235 9.46-9.459 9.46z" fill="#ffd496"/><path d="m103.316 470.017v19.006c0 5.222-4.238 9.46-9.46 9.46h-29.564c5.222 0 9.46-4.238 9.46-9.46v-19.006c0-5.222-4.238-9.46-9.46-9.46h29.563c5.222-.001 9.461 4.238 9.461 9.46z" fill="#fcc16d"/></g><g><path d="m93.854 460.551h-84.394c-5.225 0-9.46-4.236-9.46-9.46v-19.004c0-5.225 4.236-9.46 9.46-9.46h84.393c5.225 0 9.46 4.236 9.46 9.46v19.004c.001 5.225-4.235 9.46-9.459 9.46z" fill="#fca62f"/><path d="m103.316 432.088v19.006c0 5.222-4.238 9.46-9.46 9.46h-29.564c5.222 0 9.46-4.238 9.46-9.46v-19.006c0-5.222-4.238-9.46-9.46-9.46h29.563c5.222 0 9.461 4.238 9.461 9.46z" fill="#f98824"/></g><g><path d="m103.316 394.16v19.006c0 5.222-4.238 9.46-9.46 9.46h-29.564c5.222 0 9.46-4.238 9.46-9.46v-19.006c0-5.222-4.238-9.46-9.46-9.46h29.563c5.222 0 9.461 4.238 9.461 9.46z" fill="#fcc16d"/></g><g><path d="m93.854 384.696h-84.394c-5.225 0-9.46-4.236-9.46-9.46v-19.004c0-5.225 4.236-9.46 9.46-9.46h84.393c5.225 0 9.46 4.236 9.46 9.46v19.004c.001 5.224-4.235 9.46-9.459 9.46z" fill="#fca62f"/><path d="m103.316 356.233v19.006c0 5.222-4.238 9.46-9.46 9.46h-29.564c5.222 0 9.46-4.238 9.46-9.46v-19.006c0-5.222-4.238-9.46-9.46-9.46h29.563c5.222 0 9.461 4.238 9.461 9.46z" fill="#f98824"/></g></g><g><g><path d="m230.082 498.479h-84.393c-5.225 0-9.46-4.236-9.46-9.46v-19.004c0-5.225 4.236-9.46 9.46-9.46h84.393c5.225 0 9.46 4.236 9.46 9.46v19.004c0 5.225-4.235 9.46-9.46 9.46z" fill="#fca62f"/><path d="m239.544 470.017v19.006c0 5.222-4.238 9.46-9.46 9.46h-29.564c5.222 0 9.46-4.238 9.46-9.46v-19.006c0-5.222-4.238-9.46-9.46-9.46h29.563c5.223-.001 9.461 4.238 9.461 9.46z" fill="#f98824"/></g><g><path d="m239.544 432.088v19.006c0 5.222-4.238 9.46-9.46 9.46h-29.564c5.222 0 9.46-4.238 9.46-9.46v-19.006c0-5.222-4.238-9.46-9.46-9.46h29.563c5.223 0 9.461 4.238 9.461 9.46z" fill="#fcc16d"/></g><g><path d="m230.082 422.623h-84.393c-5.225 0-9.46-4.236-9.46-9.46v-19.004c0-5.225 4.236-9.46 9.46-9.46h84.393c5.225 0 9.46 4.236 9.46 9.46v19.004c0 5.224-4.235 9.46-9.46 9.46z" fill="#fca62f"/><path d="m239.544 394.16v19.006c0 5.222-4.238 9.46-9.46 9.46h-29.564c5.222 0 9.46-4.238 9.46-9.46v-19.006c0-5.222-4.238-9.46-9.46-9.46h29.563c5.223 0 9.461 4.238 9.461 9.46z" fill="#f98824"/></g></g><g><g><path d="m366.31 498.479h-84.393c-5.225 0-9.46-4.236-9.46-9.46v-19.004c0-5.225 4.236-9.46 9.46-9.46l43.255-5 41.139 5c5.225 0 9.46 4.236 9.46 9.46v19.004c-.001 5.225-4.236 9.46-9.461 9.46z" fill="#ffd496"/><path d="m375.772 470.017v19.006c0 5.222-4.238 9.46-9.46 9.46h-29.563c5.222 0 9.46-4.238 9.46-9.46v-19.006c0-5.222-4.238-9.46-9.46-9.46h29.563c5.222-.001 9.46 4.238 9.46 9.46z" fill="#fcc16d"/></g><g><path d="m366.31 460.551h-84.393c-5.225 0-9.46-4.236-9.46-9.46v-19.004c0-5.225 4.236-9.46 9.46-9.46h84.393c5.225 0 9.46 4.236 9.46 9.46v19.004c0 5.225-4.235 9.46-9.46 9.46z" fill="#fca62f"/><path d="m375.772 432.088v19.006c0 5.222-4.238 9.46-9.46 9.46h-29.563c5.222 0 9.46-4.238 9.46-9.46v-19.006c0-5.222-4.238-9.46-9.46-9.46h29.563c5.222 0 9.46 4.238 9.46 9.46z" fill="#f98824"/></g><g><path d="m375.772 394.16v19.006c0 5.222-4.238 9.46-9.46 9.46h-29.563c5.222 0 9.46-4.238 9.46-9.46v-19.006c0-5.222-4.238-9.46-9.46-9.46h29.563c5.222 0 9.46 4.238 9.46 9.46z" fill="#fcc16d"/></g></g><g><g><path d="m502.538 498.479h-84.393c-5.225 0-9.46-4.236-9.46-9.46v-19.004c0-5.225 4.236-9.46 9.46-9.46h84.393c5.225 0 9.46 4.236 9.46 9.46v19.004c0 5.225-4.235 9.46-9.46 9.46z" fill="#fca62f"/><path d="m512 470.017v19.006c0 5.222-4.238 9.46-9.46 9.46h-29.563c5.222 0 9.46-4.238 9.46-9.46v-19.006c0-5.222-4.238-9.46-9.46-9.46h29.563c5.222-.001 9.46 4.238 9.46 9.46z" fill="#f98824"/></g><g><path d="m512 432.088v19.006c0 5.222-4.238 9.46-9.46 9.46h-29.563c5.222 0 9.46-4.238 9.46-9.46v-19.006c0-5.222-4.238-9.46-9.46-9.46h29.563c5.222 0 9.46 4.238 9.46 9.46z" fill="#fcc16d"/></g><g><path d="m502.538 422.623h-84.393c-5.225 0-9.46-4.236-9.46-9.46v-19.004c0-5.225 4.236-9.46 9.46-9.46h84.393c5.225 0 9.46 4.236 9.46 9.46v19.004c0 5.224-4.235 9.46-9.46 9.46z" fill="#fca62f"/><path d="m512 394.16v19.006c0 5.222-4.238 9.46-9.46 9.46h-29.563c5.222 0 9.46-4.238 9.46-9.46v-19.006c0-5.222-4.238-9.46-9.46-9.46h29.563c5.222 0 9.46 4.238 9.46 9.46z" fill="#f98824"/></g></g><g><g><path d="m239.544 356.232v19.006c0 5.222-4.238 9.46-9.46 9.46h-29.564c5.222 0 9.46-4.238 9.46-9.46v-19.006c0-5.222-4.238-9.46-9.46-9.46h29.563c5.223 0 9.461 4.238 9.461 9.46z" fill="#fcc16d"/></g></g><g><g><path d="m230.082 346.765h-84.393c-5.225 0-9.46-4.236-9.46-9.46v-19.005c0-5.225 4.236-9.46 9.46-9.46h84.393c5.225 0 9.46 4.236 9.46 9.46v19.004c0 5.225-4.235 9.461-9.46 9.461z" fill="#fca62f"/><path d="m239.544 318.302v19.006c0 5.222-4.238 9.46-9.46 9.46h-29.564c5.222 0 9.46-4.238 9.46-9.46v-19.006c0-5.222-4.238-9.46-9.46-9.46h29.563c5.223 0 9.461 4.238 9.461 9.46z" fill="#f98824"/></g></g><g><g><path d="m366.31 384.695h-84.393c-5.225 0-9.46-4.236-9.46-9.46v-19.005c0-5.225 4.236-9.46 9.46-9.46h84.393c5.225 0 9.46 4.236 9.46 9.46v19.004c0 5.225-4.235 9.461-9.46 9.461z" fill="#fca62f"/><path d="m375.772 356.232v19.006c0 5.222-4.238 9.46-9.46 9.46h-29.563c5.222 0 9.46-4.238 9.46-9.46v-19.006c0-5.222-4.238-9.46-9.46-9.46h29.563c5.222 0 9.46 4.238 9.46 9.46z" fill="#f98824"/></g><g><path d="m375.772 318.304v19.006c0 5.222-4.238 9.46-9.46 9.46h-29.563c5.222 0 9.46-4.238 9.46-9.46v-19.006c0-5.222-4.238-9.46-9.46-9.46h29.563c5.222-.001 9.46 4.238 9.46 9.46z" fill="#fcc16d"/></g></g><g><g><path d="m239.544 280.373v19.006c0 5.222-4.238 9.46-9.46 9.46h-29.564c5.222 0 9.46-4.238 9.46-9.46v-19.006c0-5.222-4.238-9.46-9.46-9.46h29.563c5.223 0 9.461 4.238 9.461 9.46z" fill="#fcc16d"/></g></g><g><g><path d="m366.31 308.837h-84.393c-5.225 0-9.46-4.236-9.46-9.46v-19.004c0-5.225 4.236-9.46 9.46-9.46h84.393c5.225 0 9.46 4.236 9.46 9.46v19.004c0 5.225-4.235 9.46-9.46 9.46z" fill="#fca62f"/><path d="m375.772 280.375v19.006c0 5.222-4.238 9.46-9.46 9.46h-29.563c5.222 0 9.46-4.238 9.46-9.46v-19.006c0-5.222-4.238-9.46-9.46-9.46h29.563c5.222-.001 9.46 4.238 9.46 9.46z" fill="#f98824"/></g></g><g><g><path d="m512 356.232v19.006c0 5.222-4.238 9.46-9.46 9.46h-29.563c5.222 0 9.46-4.238 9.46-9.46v-19.006c0-5.222-4.238-9.46-9.46-9.46h29.563c5.222 0 9.46 4.238 9.46 9.46z" fill="#fcc16d"/></g><g><path d="m502.538 346.767h-84.393c-5.225 0-9.46-4.236-9.46-9.46v-19.004c0-5.225 4.236-9.46 9.46-9.46h84.393c5.225 0 9.46 4.236 9.46 9.46v19.004c0 5.224-4.235 9.46-9.46 9.46z" fill="#fca62f"/><path d="m512 318.304v19.006c0 5.222-4.238 9.46-9.46 9.46h-29.563c5.222 0 9.46-4.238 9.46-9.46v-19.006c0-5.222-4.238-9.46-9.46-9.46h29.563c5.222-.001 9.46 4.238 9.46 9.46z" fill="#f98824"/></g><g><path d="m512 280.376v19.006c0 5.222-4.238 9.46-9.46 9.46h-29.563c5.222 0 9.46-4.238 9.46-9.46v-19.006c0-5.222-4.238-9.46-9.46-9.46h29.563c5.222-.001 9.46 4.237 9.46 9.46z" fill="#fcc16d"/></g></g><g><g><path d="m502.538 270.912h-84.393c-5.225 0-9.46-4.236-9.46-9.46v-19.004c0-5.225 4.236-9.46 9.46-9.46h84.393c5.225 0 9.46 4.236 9.46 9.46v19.004c0 5.224-4.235 9.46-9.46 9.46z" fill="#fca62f"/><path d="m512 242.449v19.006c0 5.222-4.238 9.46-9.46 9.46h-29.563c5.222 0 9.46-4.238 9.46-9.46v-19.006c0-5.222-4.238-9.46-9.46-9.46h29.563c5.222 0 9.46 4.238 9.46 9.46z" fill="#f98824"/></g><g><path d="m512 204.521v19.006c0 5.222-4.238 9.46-9.46 9.46h-29.563c5.222 0 9.46-4.238 9.46-9.46v-19.006c0-5.222-4.238-9.46-9.46-9.46h29.563c5.222 0 9.46 4.238 9.46 9.46z" fill="#fcc16d"/></g></g></g></g></g></svg>