<svg id="Capa_1" enable-background="new 0 0 497.857 497.857" height="512" viewBox="0 0 497.857 497.857" width="512" xmlns="http://www.w3.org/2000/svg"><g><g><path d="m96.219 257.012 8.882-68.74c0-24.661 31.065-45.715 53.218-23.562l15.102 15.102z" fill="#ffcebf"/><path d="m173.418 179.809-10.13 10.14h-.01l-15.1-15.1c-12.05-12.05-26.73-11.32-37.62-4.17 9.89-15.02 31.29-22.44 47.76-5.97z" fill="#ffb09e"/><path d="m241.857 97.227 15.104 15.104-30.208 30.208-15.104-15.104c-8.337-8.337-8.337-21.857.007-30.201 4.172-4.172 9.638-6.258 15.097-6.258 5.473 0 10.932 2.079 15.104 6.251z" fill="#ffcebf"/><path d="m252.11 107.48 4.851 4.851-30.208 30.208-4.851-4.851c-8.337-8.337-8.337-21.857.007-30.201 4.172-4.172 9.638-6.258 15.097-6.258 5.474 0 10.932 2.079 15.104 6.251z" fill="#ffb09e"/><path d="m211.65 127.434 15.104 15.104-30.201 30.201-15.104-15.104c-8.337-8.337-8.337-21.857.007-30.201 4.165-4.165 9.631-6.251 15.097-6.258 5.466.008 10.925 2.087 15.097 6.258z" fill="#ffcebf"/><path d="m221.91 137.695 4.844 4.844-30.201 30.201-4.844-4.844c-8.344-8.344-8.344-21.864 0-30.208 4.165-4.165 9.631-6.251 15.097-6.258 5.466.007 10.932 2.093 15.104 6.265z" fill="#ffb09e"/><path d="m181.449 157.635 15.104 15.104-30.208 30.208-15.104-15.104c-8.337-8.337-8.33-21.864.007-30.201 4.172-4.172 9.638-6.258 15.104-6.265 5.466.007 10.925 2.086 15.097 6.258z" fill="#ffcebf"/><path d="m191.709 167.895 4.844 4.844-30.208 30.208-4.844-4.844c-8.344-8.344-8.337-21.871 0-30.208 4.172-4.172 9.638-6.258 15.104-6.265 5.466.007 10.932 2.093 15.104 6.265z" fill="#ffb09e"/><path d="m151.242 187.843 15.104 15.104-30.201 30.201-15.104-15.104c-8.337-8.337-8.337-21.857.007-30.201 4.172-4.172 9.631-6.251 15.097-6.258 5.466.007 10.925 2.086 15.097 6.258z" fill="#ffcebf"/><path d="m161.502 198.103 4.844 4.844-30.201 30.201-4.844-4.844c-8.344-8.344-8.344-21.864 0-30.208 4.172-4.172 9.631-6.251 15.097-6.258 5.466.007 10.932 2.093 15.104 6.265z" fill="#ffb09e"/><g fill="#ffcebf"><path d="m256.961 112.331 157.409 157.409-42.442 58.179-65.385 49.648c-6.341-6.341-12.477-13.12-19.495-18.731-8.035-6.432-17.288-11.507-27.04-14.807-12.926-4.384-24.664-11.681-34.309-21.326l-89.555-89.555z"/><path d="m240.896 112.331 120.816 120.816-89.555 89.555c-9.645 9.645-21.383 16.942-34.309 21.326-19.175 6.49-32.628 19.631-46.535 33.538l-56.494-45.018-51.332-62.808z"/><path d="m271.102 142.536 15.102-15.102c8.34-8.34 8.34-21.863 0-30.203-8.34-8.34-21.863-8.34-30.203 0l-15.102 15.102z"/><path d="m301.305 172.739 15.102-15.102c8.34-8.34 8.34-21.863 0-30.203-8.34-8.34-21.863-8.34-30.203 0l-15.102 15.102z"/><path d="m331.508 202.943 15.102-15.102c8.34-8.34 8.34-21.863 0-30.203-8.34-8.34-21.863-8.34-30.203 0l-15.102 15.102z"/><path d="m376.809 187.843c8.344 8.344 8.344 21.864.007 30.201l-15.104 15.104-30.201-30.201 15.104-15.104c4.172-4.172 9.631-6.251 15.097-6.258 1.86.007 3.712.248 5.522.728 3.508.933 6.824 2.779 9.575 5.53z"/></g><path d="m376.818 218.039-15.11 15.11-30.2-30.2 15.1 15.09 15.1-15.1c5.59-5.59 7.44-13.5 5.53-20.63 3.5.94 6.82 2.78 9.57 5.53 8.34 8.35 8.34 21.869.01 30.2z" fill="#ffb09e"/><path d="m385.018 255.729-26.22 5.79-24.869 5.488c-5.095 1.124-9.761 3.682-13.451 7.371l-48.321 48.321c-9.65 9.65-21.38 16.95-34.31 21.33-19.179 6.472-32.636 19.636-46.54 33.54l-9.38-4.14-5.71-10.96c13.9-13.9 27.356-27.07 46.53-33.54 12.92-4.39 24.66-11.69 34.3-21.33l42.583-42.575c5.637-5.636 5.637-14.774.001-20.41-10.845-10.845-21.728-24.916-36.964-29.424l-37.55-11.12c-23.358-4.227-20.202-39.86 4.04-39.86h53.29c.57 0 1.15.02 1.73.04 15.86.5 29.1 9.13 40.32 20.35l27.88 27.87c12.031 12.038 24.721 28.189 32.641 43.259z" fill="#ffb09e"/><path d="m339.848 184.597 27.874 27.874c12.035 12.035 24.721 28.185 32.64 43.261l-26.212 5.791-34.62 7.637-42.9-42.9c-13.571-13.571-38.381-16.929-56.166-22.196-23.803-4.26-19.717-39.853 4.045-39.852h53.288c.566 0 1.146.014 1.732.035 15.86.502 29.097 9.128 40.319 20.35z" fill="#ffcebf"/><path d="m339.848 184.597 27.874 27.874c12.035 12.035 24.721 28.185 32.64 43.261l14.008 14.008-42.442 58.179-65.385 49.648c-6.341-6.341-12.477-13.12-19.495-18.731l62.565-62.565 13.658-13.658c8.973-8.973 10.208-23.086 2.942-33.49-10.367-14.845-22.164-30.513-28.302-36.651l-27.874-27.874c-11.222-11.222-24.452-19.841-40.312-20.357-.29-.007 28.072-.028 28.072-.028.566 0 1.146.014 1.732.035 15.86.501 29.097 9.127 40.319 20.349z" fill="#ffb09e"/><path d="m414.37 269.74 51.732 51.732-55.507 62.457-70.386 63.436-51.732-51.732z" fill="#ddeafb"/><path d="m466.098 321.469-55.503 62.46-70.387 63.44-14.01-14.01 125.9-125.89z" fill="#cbe2ff"/><path d="m326.262 379.395h178.04v34.3h-178.04z" fill="#ffd15b" transform="matrix(.707 -.707 .707 .707 -158.766 409.794)"/><path d="m490.357 345.731-125.895 125.888-17.704-17.71c3.45 3.34 8.94 3.3 12.34-.1l113.45-113.44c3.43-3.44 3.43-9.02 0-12.45z" fill="#ffc344"/><path d="m83.487 269.74 125.893 125.893-51.732 51.732-64.22-56.886-61.673-69.007z" fill="#ddeafb"/><path d="m129.363 250.737h20.001v178.039h-20.001z" fill="#cbe2ff" transform="matrix(.707 -.707 .707 .707 -199.475 198.176)"/><path d="m65.424 307.525h34.3v178.04h-34.3z" fill="#528fd8" transform="matrix(.707 -.707 .707 .707 -256.214 174.534)"/><path d="m80.063 301.462h17.151v178.039h-17.151z" fill="#0473ce" transform="matrix(.707 -.707 .707 .707 -250.15 177.046)"/></g><g><path d="m495.661 340.428-34.341-34.34c-2.93-2.929-7.678-2.929-10.607 0s-2.929 7.678 0 10.606l4.783 4.782-115.287 115.288-41.127-41.127 115.288-115.287 11.753 11.753c2.93 2.929 7.678 2.929 10.607 0s2.929-7.678 0-10.606l-17.015-17.015c-13.48-13.823-22.338-29.572-34.816-44.35 14.256-19.146-.831-47.178-24.578-46.013.785-16.675-13.464-31-30.193-30.208.784-16.667-13.518-31.017-30.216-30.2 1.295-27.513-33.093-39.888-50.986-20.017l-1.766-1.766c-11.251-11.251-29.559-11.251-40.81 0-5.979 5.979-8.781 13.951-8.405 21.798-16.701-.8-31.007 13.461-30.216 30.203-6.653-.316-13.39 1.661-18.931 5.913-10.196-3.596-21.344-2.292-31.217 3.789-12.172 7.497-19.79 20.538-19.976 34.132l-8.496 65.754-86.912 86.911c-2.929 2.929-2.929 7.678 0 10.606l125.893 125.894c1.464 1.465 3.384 2.197 5.303 2.197s3.839-.732 5.303-2.197l75.987-75.987c2.929-2.929 2.929-7.678 0-10.606l-12.766-12.766c14.332-14.331 28.707-21.591 47.01-29.86 18.162 8.206 32.805 15.656 47.01 29.86l-12.766 12.766c-1.406 1.406-2.196 3.314-2.196 5.303s.79 3.897 2.196 5.303l75.987 75.987c1.465 1.464 3.385 2.197 5.304 2.197s3.839-.732 5.304-2.197l125.894-125.893c1.406-1.406 2.196-3.314 2.196-5.303s-.789-3.898-2.195-5.304zm-133.959-151.343c9.71.012 16.619 10.576 12.674 19.472-6.027-6.15-12.16-12.198-18.249-18.287 1.859-.396 3.717-.79 5.575-1.185zm-30.207-30.208c9.799.012 16.609 10.541 12.676 19.466-6.448-6.301-13.735-11.987-21.885-15.926 2.632-2.318 5.701-3.498 9.209-3.54zm-203.382 55.63-1.766-1.766c-5.403-5.403-5.403-14.194 0-19.597 2.702-2.701 6.25-4.052 9.798-4.052s7.097 1.351 9.798 4.052l1.765 1.765-9.798 9.798zm88.844-111.973c2.702-2.701 6.25-4.052 9.798-4.052s7.097 1.351 9.798 4.052l1.766 1.766-19.597 19.597-1.766-1.766c-5.402-5.403-5.402-14.194.001-19.597zm-34.262 40.002c0-3.701 1.441-7.181 4.059-9.798 2.702-2.701 6.25-4.052 9.798-4.052s7.097 1.351 9.798 4.052l1.766 1.766-9.798 9.798-9.799 9.798-1.766-1.766c-2.617-2.617-4.058-6.097-4.058-9.798zm-16.347 16.353c3.548 0 7.098 1.351 9.798 4.052l1.766 1.766-19.597 19.597-1.766-1.766c-5.403-5.403-5.403-14.194 0-19.597 2.703-2.702 6.25-4.052 9.799-4.052zm-40.901 7.513c2.866-1.764 7.843-4.028 13.758-3.44-1.289 3.596-1.848 7.397-1.667 11.171-9.635-.462-19.172 4.125-24.814 11.956.776-7.741 5.589-15.293 12.723-19.687zm7.946 294.616-115.286-115.287 13.648-13.648 115.286 115.287zm148.96-114.676c-5.29-3.288-10.903-6.062-16.73-8.268 7.469-5.377 13.778-12.01 20.258-18.489 2.929-2.929 2.929-7.678 0-10.606-2.93-2.929-7.678-2.929-10.607 0-9.097 9.097-17.984 17.901-29.683 23.716-20.497 10.249-37.783 17.771-54.278 34.266l-63.77-63.77c-2.929-2.929-7.678-2.929-10.606 0-2.929 2.929-2.929 7.678 0 10.606l81.839 81.839-41.126 41.127-115.289-115.286 41.126-41.126 7.426 7.426c2.929 2.929 7.678 2.929 10.606 0 2.929-2.929 2.929-7.678 0-10.606l-7.426-7.426 7.429-7.429c1.172-1.172 1.922-2.699 2.135-4.342l5.719-44.26c2.732 6.818 8.361 11.632 13.419 16.689 2.933 2.934 7.75 2.887 10.621.015l127.887-127.888c12.497-12.497 32.138 7.064 19.6 19.601-1.464 1.464-2.196 3.384-2.196 5.303s.732 3.839 2.196 5.303c2.93 2.929 7.678 2.929 10.607 0 12.642-12.642 32.234 6.956 19.594 19.594-1.464 1.464-2.196 3.384-2.196 5.303 0-1.733-59.58-.924-64.399-.924-32.651 0-38.072 48.356-5.806 54.653l37.188 11.014c5.808 1.718 11.145 4.894 15.435 9.185l30.683 30.682-21.651 21.651c-2.93 2.929-2.93 7.677-.001 10.606s7.678 2.929 10.606 0l26.955-26.954c1.407-1.406 2.197-3.314 2.197-5.303s-.79-3.897-2.196-5.303l-35.985-35.985c-6.054-6.054-13.588-10.537-21.784-12.961l-37.555-11.123c-13.836-4.095-15.134-25.161 1.915-25.161h53.288c14.475 0 26.856 8.296 36.748 18.189 0 0 32.529 32.662 34.729 35.124 12.82 14.257 21.022 31.249 34.49 44.716l-97.22 97.22c-7.555-7.553-15.047-14.938-24.192-20.618zm82.111 114.676-13.647-13.647 115.286-115.287 13.648 13.648z"/><path d="m248.928 49.066c4.143 0 7.5-3.358 7.5-7.5v-15.333c0-4.142-3.357-7.5-7.5-7.5-4.142 0-7.5 3.358-7.5 7.5v15.333c0 4.142 3.358 7.5 7.5 7.5z"/><path d="m206.635 51.839c1.232 2.817 3.985 4.497 6.875 4.497 1.003 0 2.023-.203 3.001-.63 3.795-1.66 5.526-6.082 3.866-9.877l-6.144-14.048c-1.66-3.795-6.082-5.527-9.877-3.866-3.795 1.66-5.526 6.082-3.866 9.877z"/><path d="m178.872 75.192c1.443 1.334 3.269 1.993 5.09 1.993 2.018 0 4.03-.81 5.509-2.408 2.812-3.041 2.626-7.786-.415-10.599l-11.258-10.41c-3.042-2.813-7.786-2.626-10.599.415-2.812 3.041-2.626 7.786.415 10.599z"/><path d="m281.345 55.705c.978.428 1.997.63 3.001.63 2.89 0 5.644-1.68 6.876-4.497l6.144-14.048c1.659-3.795-.072-8.217-3.867-9.876-3.792-1.658-8.217.071-9.877 3.867l-6.144 14.048c-1.659 3.794.072 8.216 3.867 9.876z"/><path d="m313.894 77.185c1.821 0 3.647-.659 5.09-1.993l11.259-10.41c3.041-2.812 3.228-7.557.415-10.599-2.813-3.041-7.558-3.228-10.599-.415l-11.259 10.41c-3.041 2.812-3.228 7.557-.415 10.599 1.479 1.598 3.491 2.408 5.509 2.408z"/><ellipse cx="157.648" cy="396.551" rx="8.452" ry="8.452" transform="matrix(.973 -.23 .23 .973 -86.891 46.828)"/></g></g></svg>